<?xml version="1.0" encoding="utf-8"?>
<!-- Generator: Adobe Illustrator 26.5.0, SVG Export Plug-In . SVG Version: 6.00 Build 0)  -->
<svg version="1.1" xmlns="http://www.w3.org/2000/svg" xmlns:xlink="http://www.w3.org/1999/xlink" x="0px" y="0px"
	 viewBox="0 0 841.9 595.3" style="enable-background:new 0 0 841.9 595.3;" xml:space="preserve">
<style type="text/css">
	.st0{fill:#FFFFFF;}
	.st1{fill:#3DDC97;}
	.st2{display:none;}
	.st3{display:inline;}
	.st4{fill:#021D1E;}
</style>
<g id="Calque_1">
	<g>
		<g>
			<path class="st0" d="M436.3,165.6l-7.4,18.3C430.8,177.6,433.3,171.4,436.3,165.6z"/>
			<path class="st0" d="M701.6,161.8L677.4,184l-11.7,10.7c1.8,8.4,2.7,16.9,2.7,25.6c0,16.4-3.2,32.3-9.3,46.9
				c-6,14.7-15,28.1-26.6,39.7c-23.2,23.2-53.9,35.9-86.7,35.9c-32.7,0-63.5-12.7-86.6-35.9c-3.1-3.1-6-6.3-8.7-9.7
				c-10.5-13-18.2-27.8-22.6-43.8c-3-10.6-4.6-21.8-4.6-33.1c0-12.5,1.9-24.6,5.4-36.2v0c0,0,0-0.1,0-0.1c2-6.3,4.5-12.5,7.4-18.3
				c0-0.1,0.1-0.1,0.1-0.2c0,0,0-0.1,0-0.1c1.9-3.9,4.1-7.7,6.5-11.3c4.6-7.2,10.1-14,16.3-20.2c9.8-9.8,20.9-17.7,33-23.5
				c16.5-8.1,34.7-12.3,53.7-12.3c9.6,0,19,1.1,28.1,3.2l11.3-10.3L611,67.2C590.7,58.5,568.7,54,545.9,54
				c-24.8,0-48.8,5.4-70.6,15.7l15.8-38.2l-47.6,0.3l-31.8,78.3H295.7l32-78.6l-47.3-0.3l-32,78.9h-74.9l-17.8,43.8h74.9l-40.4,99.5
				h-74.9l-17.8,43.8h74.9l-36.7,90.1l47.5-0.3l36.5-89.8h115.9l-36.6,90.1l47.1,0.2l36.7-90.3l7.4-18.2c2.4,6.3,5.1,12.3,8.2,18.2
				c7.7,14.8,17.8,28.5,29.9,40.7c31.4,31.4,73.2,48.7,117.5,48.7c44.4,0,86.2-17.3,117.6-48.7c31.4-31.4,48.7-73.1,48.7-117.5
				C712.2,200,708.5,180.2,701.6,161.8z M387.4,169.7C387.4,169.8,387.4,169.8,387.4,169.7c0,0.1-0.1,0.2-0.1,0.3l-33.9,83.4H237.6
				l40.4-99.5h115.9L387.4,169.7z"/>
		</g>
		<g>
			<path class="st1" d="M743.8,63.8h-31.7l2.3-32.3L588.9,146.5c-18.2-10.6-39.4-14-59.6-10c-13.4,2.6-26.2,8.4-37.3,17.4
				c-2.2,1.9-4.5,3.9-6.6,6c-25.2,25.3-31.4,62.5-18.4,93.6c2,4.7,4.3,9.2,7.1,13.5c3.3,4.9,6.9,9.5,11.3,13.8
				c16.7,16.7,38.6,25,60.4,25c11,0,22-2.1,32.3-6.2c10.2-4.2,19.9-10.5,28.3-18.8c27.9-27.9,32.4-70.6,13.5-103.3
				c-0.1-0.1-0.1-0.1-0.1-0.1L743.8,63.8z M575.5,249.8c-16.3,16.3-42.8,16.3-59,0c-16.2-16.2-16.2-42.7,0-59
				c8.1-8.1,18.8-12.2,29.5-12.2c2.4,0,4.8,0.2,7.3,0.6c8.2,1.4,16,5.3,22.3,11.6c5.1,5.1,8.6,11.1,10.4,17.6c0,0.1,0.1,0.1,0.1,0.1
				C590.1,222.7,586.6,238.6,575.5,249.8z"/>
		</g>
	</g>
	<g>
		<g>
			<g>
				<g>
					<g>
						<g>
							<path class="st0" d="M141.7,527.7l-0.5,1.7c-4.7,21.3-21.8,35.1-43.6,35.1c-26.7,0-45.3-19.7-45.3-47.9s18.6-48,45.3-48
								c22,0,38.6,13.4,43.4,35l0.5,1.7h-23.7l-0.4-0.7c-3.9-7.7-10.8-12.1-19.2-12.1c-12.7,0-21.6,9.9-21.6,24.1
								c0,14.2,8.9,24.1,21.6,24.1c8.3,0,15.1-4.4,19.2-12.1l0.4-0.8H141.7z"/>
						</g>
					</g>
				</g>
			</g>
		</g>
		<g>
			<path class="st0" d="M197.1,468.9c-26.1,0-45.2,20.1-45.2,47.7c0,27.5,19.1,47.6,45.2,47.6c26.2,0,45.2-20.1,45.2-47.6
				C242.3,489,223.3,468.9,197.1,468.9z M197.1,542.6c-13.3,0-23-10.9-23-26c0-15.1,9.7-26,23-26s23.1,11,23.1,26
				C220.2,531.8,210.5,542.6,197.1,542.6z"/>
		</g>
		<path class="st0" d="M319,436.6l-0.3,44.3l-3.2-2.4l-2.7-2c-6.6-4.8-14.3-7.3-22.2-7.3c-23.2,0-39.9,19.9-39.9,47.4
			c0,27.5,16.8,47.5,39.9,47.5c9.6,0,18.3-3.5,25.3-10.1l2.4-2.3l2.9-2.7l0.6,4.2l1.1,8.7h17.9l0.3-125.3L319,436.6z M295.7,542.7
			c-13.5,0-23.4-10.9-23.4-26.1c0-15.1,9.8-26,23.4-26c13.5,0,23.2,10.9,23.2,26C319,531.7,309.2,542.7,295.7,542.7z"/>
		<path class="st0" d="M428.1,485c-8-10.5-20.2-16.2-34.3-16.2c-25.6,0-44.2,20-44.2,47.6c0,27.6,18.5,47.6,44.2,47.6
			c17.9,0,32.5-9.4,39.6-25.3h-23.4c-4.2,3.6-10.1,5.8-15.9,5.8c-11.4,0-19.4-6.2-22.5-17.3l-0.7-4.4l66.8,0.1
			C438.9,508.9,435.4,494.6,428.1,485z M370.8,508.1l0.8-2.6c3.2-10.9,11.7-17.3,22.5-17.3c11.4,0,19.7,6.4,22.6,17.5l0.6,2.5
			L370.8,508.1z"/>
		<path class="st0" d="M576.8,471.3h-63.9l-0.1-4.2c0-10.2,5.7-15.4,16.8-15.4c0.8,0,2.2,0,4.1,0.2v-14.3c-3.7-0.6-7.4-0.9-11.3-0.9
			c-14.1,0-30.9,4.8-30.9,27.6l0.1,7H477v18.6h14.7l0,74.1h22.1l0-74.7h40.7l0,74.7h22.3L576.8,471.3z M565.5,436.1
			c-8.3,0-13.5,5.2-13.5,13.7c0,8.4,5.2,13.7,13.5,13.7c8.4,0,13.3-5.2,13.3-13.7C578.8,441.3,573.7,436.1,565.5,436.1z"/>
		<path class="st0" d="M649.2,470.3v21.9c-2.3-0.3-4.6-0.5-7.1-0.5c-15.7,0-25.1,10.4-25.1,27.9l0.1,44.4h-22l-0.1-93h19.9L616,482
			l0.6,5.6l3.2-4.4l2.6-3.6c4.7-6.5,12-10.1,20.4-10.1C644.7,469.6,646.7,469.8,649.2,470.3z"/>
		<path class="st0" d="M726.2,535.6c0,17-14.5,28.5-36.2,28.5c-20.1,0-33.5-9.4-36.1-25.1h21.9c2,5.3,7.2,8.4,14.5,8.4
			c8.4,0,14.1-4.5,14.1-11.2c0-9.1-8.4-11-19.3-12.5c-20.7-2.7-30.7-11.4-30.7-26.5c0-17.3,13.7-28.4,34.9-28.4
			c17.8,0,31.2,9.5,34.1,23.9h-20.8c-1.4-3.3-4.9-7.3-13.7-7.3c-12.5,0-13.1,8.7-13.1,10.5c0,9.5,9.8,11.5,19.8,12.7
			C716.5,511.1,726.2,519.7,726.2,535.6z"/>
		<path class="st0" d="M789.1,543.8v18.7c-5.2,0.9-9.3,1.4-13,1.4c-20,0-30.1-10.9-30.1-32.5v-41.6h-14.7V471H746v-20.6l22.3-2.6
			V471h19.7v18.8h-19.7v36.9c0,11.4,5.5,17.3,16.5,17.3C786,544,787.5,543.9,789.1,543.8z"/>
	</g>
</g>
<g id="Calque_2" class="st2">
	<g class="st3">
		<g>
			<path class="st4" d="M436.6,166.1l-7.4,18.3C431.1,178.1,433.6,171.9,436.6,166.1z"/>
			<path class="st4" d="M701.9,162.2l-24.2,22.2l-11.7,10.7c1.8,8.4,2.7,16.9,2.7,25.6c0,16.4-3.2,32.3-9.3,46.9
				c-6,14.7-15,28.1-26.6,39.7c-23.2,23.2-53.9,35.9-86.7,35.9c-32.7,0-63.5-12.7-86.6-35.9c-3.1-3.1-6-6.3-8.7-9.7
				c-10.5-13-18.2-27.8-22.6-43.8c-3-10.6-4.6-21.8-4.6-33.1c0-12.5,1.9-24.6,5.4-36.2v0c0,0,0-0.1,0-0.1c2-6.3,4.5-12.5,7.4-18.3
				c0-0.1,0.1-0.1,0.1-0.2c0,0,0-0.1,0-0.1c1.9-3.9,4.1-7.7,6.5-11.3c4.6-7.2,10.1-14,16.3-20.2c9.8-9.8,20.9-17.7,33-23.5
				c16.5-8.1,34.7-12.3,53.7-12.3c9.6,0,19,1.1,28.1,3.2l11.3-10.3l25.6-23.5c-20.3-8.7-42.3-13.2-65.1-13.2
				c-24.8,0-48.8,5.4-70.6,15.7L491.3,32l-47.6,0.3l-31.8,78.3H296L328,32l-47.3-0.3l-32,78.9h-74.9L156,154.4H231l-40.4,99.5h-74.9
				l-17.8,43.8h74.9l-36.7,90.1l47.5-0.3l36.5-89.8h115.9l-36.6,90.1l47.1,0.2l36.7-90.3l7.4-18.2c2.4,6.3,5.1,12.3,8.2,18.2
				c7.7,14.8,17.8,28.5,29.9,40.7C460,369.7,501.8,387,546.1,387c44.4,0,86.2-17.3,117.6-48.7c31.4-31.4,48.7-73.1,48.7-117.5
				C712.4,200.5,708.8,180.7,701.9,162.2z M387.7,170.2C387.7,170.3,387.7,170.3,387.7,170.2c0,0.1-0.1,0.2-0.1,0.3l-33.9,83.4
				H237.8l40.4-99.5h115.9L387.7,170.2z"/>
		</g>
		<g>
			<path class="st4" d="M744.1,64.3h-31.7l2.3-32.3L589.2,146.9c-18.2-10.6-39.4-14-59.6-10c-13.4,2.6-26.2,8.4-37.3,17.4
				c-2.2,1.9-4.5,3.9-6.6,6c-25.2,25.3-31.4,62.5-18.4,93.6c2,4.7,4.3,9.2,7.1,13.5c3.3,4.9,6.9,9.5,11.3,13.8
				c16.7,16.7,38.6,25,60.4,25c11,0,22-2.1,32.3-6.2c10.2-4.2,19.9-10.5,28.3-18.8c27.9-27.9,32.4-70.6,13.5-103.3
				c-0.1-0.1-0.1-0.1-0.1-0.1L744.1,64.3z M575.7,250.2c-16.3,16.3-42.8,16.3-59,0c-16.2-16.2-16.2-42.7,0-59
				c8.1-8.1,18.8-12.2,29.5-12.2c2.4,0,4.8,0.2,7.3,0.6c8.2,1.4,16,5.3,22.3,11.6c5.1,5.1,8.6,11.1,10.4,17.6c0,0.1,0.1,0.1,0.1,0.1
				C590.3,223.1,586.9,239.1,575.7,250.2z"/>
		</g>
	</g>
	<g class="st3">
		<g>
			<g>
				<g>
					<g>
						<g>
							<path class="st4" d="M141.9,528.1l-0.5,1.7c-4.7,21.3-21.8,35.1-43.6,35.1c-26.7,0-45.3-19.7-45.3-47.9s18.6-48,45.3-48
								c22,0,38.6,13.4,43.4,35l0.5,1.7h-23.7l-0.4-0.7c-3.9-7.7-10.8-12.1-19.2-12.1c-12.7,0-21.6,9.9-21.6,24.1
								c0,14.2,8.9,24.1,21.6,24.1c8.3,0,15.1-4.4,19.2-12.1l0.4-0.8H141.9z"/>
						</g>
					</g>
				</g>
			</g>
		</g>
		<g>
			<path class="st4" d="M197.4,469.4c-26.1,0-45.2,20.1-45.2,47.7c0,27.5,19.1,47.6,45.2,47.6c26.2,0,45.2-20.1,45.2-47.6
				C242.5,489.4,223.6,469.4,197.4,469.4z M197.4,543.1c-13.3,0-23-10.9-23-26c0-15.1,9.7-26,23-26s23.1,11,23.1,26
				C220.5,532.2,210.7,543.1,197.4,543.1z"/>
		</g>
		<path class="st4" d="M319.2,437l-0.3,44.3l-3.2-2.4l-2.7-2c-6.6-4.8-14.3-7.3-22.2-7.3c-23.2,0-39.9,19.9-39.9,47.4
			c0,27.5,16.8,47.5,39.9,47.5c9.6,0,18.3-3.5,25.3-10.1l2.4-2.3l2.9-2.7l0.6,4.2l1.1,8.7H341l0.3-125.3L319.2,437z M296,543.1
			c-13.5,0-23.4-10.9-23.4-26.1c0-15.1,9.8-26,23.4-26c13.5,0,23.2,10.9,23.2,26C319.2,532.2,309.5,543.1,296,543.1z"/>
		<path class="st4" d="M428.3,485.5c-8-10.5-20.2-16.2-34.3-16.2c-25.6,0-44.2,20-44.2,47.6c0,27.6,18.5,47.6,44.2,47.6
			c17.9,0,32.5-9.4,39.6-25.3h-23.4c-4.2,3.6-10.1,5.8-15.9,5.8c-11.4,0-19.4-6.2-22.5-17.3l-0.7-4.4l66.8,0.1
			C439.2,509.4,435.7,495.1,428.3,485.5z M371.1,508.5l0.8-2.6c3.2-10.9,11.7-17.3,22.5-17.3c11.4,0,19.7,6.4,22.6,17.5l0.6,2.5
			L371.1,508.5z"/>
		<path class="st4" d="M577,471.8h-63.9l-0.1-4.2c0-10.2,5.7-15.4,16.8-15.4c0.8,0,2.2,0,4.1,0.2v-14.3c-3.7-0.6-7.4-0.9-11.3-0.9
			c-14.1,0-30.9,4.8-30.9,27.6l0.1,7h-14.7v18.6h14.7l0,74.1H514l0-74.7h40.7l0,74.7H577L577,471.8z M565.7,436.6
			c-8.3,0-13.5,5.2-13.5,13.7c0,8.4,5.2,13.7,13.5,13.7c8.4,0,13.3-5.2,13.3-13.7C579.1,441.8,573.9,436.6,565.7,436.6z"/>
		<path class="st4" d="M649.4,470.7v21.9c-2.3-0.3-4.6-0.5-7.1-0.5c-15.7,0-25.1,10.4-25.1,27.9l0.1,44.4h-22l-0.1-93h19.9l1.1,10.9
			l0.6,5.6l3.2-4.4l2.6-3.6c4.7-6.5,12-10.1,20.4-10.1C644.9,470,647,470.3,649.4,470.7z"/>
		<path class="st4" d="M726.5,536c0,17-14.5,28.5-36.2,28.5c-20.1,0-33.5-9.4-36.1-25.1h21.9c2,5.3,7.2,8.4,14.5,8.4
			c8.4,0,14.1-4.5,14.1-11.2c0-9.1-8.4-11-19.3-12.5c-20.7-2.7-30.7-11.4-30.7-26.5c0-17.3,13.7-28.4,34.9-28.4
			c17.8,0,31.2,9.5,34.1,23.9h-20.8c-1.4-3.3-4.9-7.3-13.7-7.3c-12.5,0-13.1,8.7-13.1,10.5c0,9.5,9.8,11.5,19.8,12.7
			C716.7,511.6,726.5,520.2,726.5,536z"/>
		<path class="st4" d="M789.3,544.2V563c-5.2,0.9-9.3,1.4-13,1.4c-20,0-30.1-10.9-30.1-32.5v-41.6h-14.7v-18.8h14.7v-20.6l22.3-2.6
			v23.2h19.7v18.8h-19.7v36.9c0,11.4,5.5,17.3,16.5,17.3C786.2,544.5,787.7,544.4,789.3,544.2z"/>
	</g>
</g>
</svg>
