<?xml version="1.0" encoding="UTF-8"?><svg id="Calque_2" xmlns="http://www.w3.org/2000/svg" viewBox="0 0 736.73 533.13"><defs><style>.cls-1{fill:#3ddc97;}.cls-2{fill:#021d1e;}</style></defs><g id="Calque_1-2"><g><g><path class="cls-2" d="M383.98,134.31l-7.44,18.34c1.97-6.3,4.46-12.47,7.44-18.34Z"/><path class="cls-2" d="M649.27,130.5l-24.25,22.19-11.68,10.68c1.79,8.36,2.71,16.94,2.71,25.65,0,16.37-3.19,32.25-9.28,46.91-6.04,14.66-15.01,28.14-26.56,39.69-23.15,23.15-53.92,35.89-86.65,35.89s-63.46-12.74-86.61-35.89c-3.11-3.11-6-6.35-8.71-9.72-10.55-13-18.21-27.83-22.63-43.76-3.02-10.63-4.55-21.75-4.55-33.13,0-12.47,1.88-24.6,5.43-36.19v-.04s.04-.09,.04-.13c1.97-6.3,4.46-12.47,7.44-18.34,.04-.09,.09-.13,.13-.22,0-.04,0-.09,.04-.13,1.93-3.9,4.07-7.7,6.48-11.33,4.64-7.22,10.11-14,16.32-20.22,9.76-9.76,20.88-17.68,32.95-23.54,16.5-8.1,34.75-12.34,53.65-12.34,9.58,0,19.04,1.09,28.14,3.24l11.29-10.33,25.65-23.46c-20.31-8.71-42.32-13.22-65.08-13.22-24.81,0-48.75,5.38-70.59,15.67L438.73,.25l-47.62,.32-31.82,78.29h-115.89L275.45,.25l-47.27-.25-32.04,78.86H121.22l-17.77,43.76h74.92l-40.44,99.52H63.01l-17.77,43.76H120.17l-36.67,90.13,47.48-.33,36.46-89.8h115.93l-36.63,90.13,47.14,.2,36.67-90.33,7.4-18.21c2.36,6.26,5.08,12.34,8.18,18.21,7.7,14.79,17.77,28.53,29.89,40.66,31.42,31.42,73.17,48.71,117.55,48.71s86.17-17.29,117.59-48.71c31.38-31.38,48.67-73.13,48.67-117.55,0-20.31-3.63-40.04-10.55-58.51Zm-314.18,7.97s0,.04-.04,.09c0,.04-.04,.13-.04,.18l-33.87,83.41h-115.89l40.39-99.52h115.89l-6.43,15.84Z"/></g><path class="cls-1" d="M691.48,32.57h-31.65l2.3-32.26-125.53,114.89c-18.16-10.64-39.45-13.96-59.58-10.03-13.35,2.64-26.16,8.4-37.28,17.42-2.24,1.9-4.47,3.86-6.57,5.96-25.21,25.28-31.38,62.49-18.37,93.6,1.97,4.68,4.34,9.15,7.12,13.49,3.25,4.88,6.91,9.49,11.25,13.83,16.67,16.67,38.57,25.01,60.39,25.01,10.98,0,21.96-2.1,32.26-6.24,10.23-4.2,19.86-10.51,28.26-18.77,27.93-27.93,32.4-70.63,13.49-103.3q-.07-.07-.07-.14l123.97-113.46Zm-168.36,185.92c-16.27,16.27-42.77,16.27-59.04,0-16.2-16.2-16.2-42.7,0-58.97,8.13-8.13,18.84-12.2,29.48-12.2,2.44,0,4.81,.2,7.25,.61,8.2,1.42,16,5.29,22.3,11.59,5.08,5.08,8.61,11.12,10.44,17.56,0,.07,.07,.14,.07,.14,4.13,14.17,.68,30.09-10.51,41.28Z"/></g><g><path class="cls-2" d="M89.36,496.38l-.46,1.67c-4.71,21.27-21.78,35.09-43.56,35.09-26.72,0-45.34-19.69-45.34-47.95s18.61-48.03,45.34-48.03c22.01,0,38.62,13.42,43.41,35.01l.46,1.67h-23.71l-.39-.71c-3.86-7.7-10.81-12.07-19.15-12.07-12.74,0-21.63,9.92-21.63,24.13s8.88,24.13,21.63,24.13c8.34,0,15.14-4.37,19.15-12.15l.39-.79h23.87Z"/><path class="cls-2" d="M144.8,437.62c-26.12,0-45.17,20.08-45.17,47.71s19.05,47.63,45.17,47.63,45.17-20.08,45.17-47.63-18.97-47.71-45.17-47.71Zm0,73.75c-13.34,0-23.02-10.88-23.02-26.04s9.68-26.04,23.02-26.04,23.1,10.95,23.1,26.04-9.76,26.04-23.1,26.04Z"/><path class="cls-2" d="M266.62,405.3l-.34,44.31-3.23-2.42-2.67-1.95c-6.6-4.76-14.25-7.34-22.18-7.34-23.16,0-39.94,19.92-39.94,47.41s16.78,47.49,39.94,47.49c9.62,0,18.32-3.51,25.34-10.08l2.39-2.27,2.88-2.73,.56,4.22,1.12,8.75h17.9l.34-125.28-22.11-.1Zm-23.22,106.09c-13.55,0-23.38-10.94-23.38-26.09s9.83-26.01,23.38-26.01,23.24,10.93,23.24,26.01-9.76,26.09-23.24,26.09Z"/><path class="cls-2" d="M375.71,453.75c-8-10.47-20.22-16.25-34.26-16.25-25.62,0-44.15,20-44.15,47.64s18.53,47.64,44.15,47.64c17.9,0,32.5-9.37,39.59-25.31h-23.45c-4.21,3.59-10.11,5.78-15.93,5.78-11.37,0-19.37-6.17-22.46-17.26l-.7-4.35,66.77,.11c1.33-14.14-2.18-28.4-9.56-38.01Zm-57.21,23.04l.77-2.58c3.23-10.86,11.65-17.34,22.53-17.34s19.65,6.4,22.6,17.5l.63,2.5-46.54-.08Z"/><path class="cls-2" d="M524.43,440.07h-63.88l-.12-4.2c0-10.23,5.69-15.39,16.85-15.39,.84,0,2.25,0,4.07,.16v-14.29c-3.72-.62-7.44-.86-11.3-.86-14.11,0-30.89,4.76-30.89,27.57l.12,7.02h-14.67v18.59h14.67l.02,74.14h22.11l-.02-74.68h40.71l.02,74.68h22.32l-.02-92.73Zm-11.28-35.26c-8.28,0-13.48,5.23-13.48,13.75s5.19,13.67,13.48,13.67,13.34-5.16,13.34-13.67-5.12-13.75-13.34-13.75Z"/><path class="cls-2" d="M596.83,438.99v21.95c-2.32-.31-4.63-.47-7.09-.47-15.72,0-25.13,10.39-25.13,27.88l.14,44.44h-22.04l-.14-93.02h19.94l1.12,10.93,.56,5.62,3.16-4.37,2.6-3.59c4.7-6.48,12-10.08,20.43-10.08,1.97,0,4,.23,6.46,.7Z"/><path class="cls-2" d="M673.9,504.28c0,17.03-14.53,28.51-36.22,28.51-20.15,0-33.48-9.37-36.08-25.15h21.9c1.97,5.31,7.23,8.44,14.53,8.44,8.42,0,14.11-4.53,14.11-11.25,0-9.06-8.35-11.01-19.3-12.5-20.71-2.73-30.75-11.4-30.75-26.48,0-17.26,13.69-28.35,34.89-28.35,17.83,0,31.17,9.45,34.12,23.9h-20.78c-1.4-3.28-4.91-7.34-13.69-7.34-12.49,0-13.13,8.67-13.13,10.47,0,9.45,9.76,11.48,19.8,12.73,20.85,2.58,30.61,11.17,30.61,27.02Z"/><path class="cls-2" d="M736.73,512.48v18.75c-5.19,.94-9.34,1.41-12.99,1.41-20.01,0-30.11-10.93-30.11-32.49v-41.55h-14.67v-18.82h14.67v-20.62l22.25-2.58v23.2h19.73v18.82h-19.73v36.87c0,11.4,5.55,17.26,16.5,17.26,1.26,0,2.74-.08,4.35-.23Z"/></g></g></svg>